<?xml version="1.0" encoding="UTF-8"?>
<svg width="201px" height="160px" viewBox="0 0 201 160" version="1.1" xmlns="http://www.w3.org/2000/svg" xmlns:xlink="http://www.w3.org/1999/xlink">
    <title> 19</title>
    <g id="-1" stroke="none" stroke-width="1" fill="none" fill-rule="evenodd">
        <g id="Token-Swift---with-connet" transform="translate(-1249.000000, -621.000000)">
            <polygon id="xxx" fill="#000000" points="0 199 1920 199 1920 1233 0 1233 0 936.239794"></polygon>
            <g id="-13" transform="translate(439.920841, 236.000000)">
                <rect id="xxx" fill="#5F5D5D" x="0.0791587673" y="67" width="1040" height="666" rx="10"></rect>
                <g id="-2" transform="translate(30.000000, 198.000000)"></g>
            </g>
            <g id="-19" transform="translate(1249.000000, 621.000000)" fill="#8A8A8A" fill-rule="nonzero">
                <g id="ccc-(4)" transform="translate(125.000000, 92.000000)">
                    <path d="M46.2176674,0 C48.8808818,5.09213652 53.282819,15.1403925 57.1673802,16.5260658 C57.6253852,16.1605201 58.0749087,15.7864733 58.5329137,15.4124266 C59.1096608,6.20577572 73.1297036,2.84785598 75.6317681,15.0383798 C78.1932036,27.4839355 66.7345963,22.7403425 61.5608358,26.463808 C64.4276081,32.1255157 67.4724933,38.2972872 70.330784,43.9589949 C66.2087387,46.1607701 59.4828501,51.847981 54.5974631,52.6895862 C53.6899346,52.528066 53.7323425,51.5079385 53.4100426,51.0998875 C55.0469865,40.6945868 47.998798,32.839605 37.9990216,43.4234279 C29.7379679,52.1795224 46.5230041,56.5830729 45.5985124,59.0568821 C40.6707176,62.1087636 35.5902544,64.9566196 30.6624596,68 C27.2613481,62.5593199 23.8008657,56.872109 20.3912727,51.4314289 C19.7127467,51.7374672 19.0257392,52.0435054 18.3556948,52.3495437 C16.2522643,59.7709714 5.25166205,67.5239405 0.764909083,53.9222403 C-2.89913115,42.7943493 7.46535302,43.3044131 13.5296789,42.6753344 C13.9198313,42.343793 14.3015021,42.0207526 14.683173,41.6807101 C11.6637324,35.9169896 8.3389552,30.0257532 5.31103307,24.2535317 C10.5272015,21.2271534 15.8875566,17.911739 21.1122066,14.8768596 C25.2596965,19.2379047 18.8730709,29.5326916 29.6446706,29.3031629 C36.4723382,29.1501438 42.7062955,20.2920365 37.9566137,14.1457682 C35.318844,12.6325791 31.569988,12.8111014 30.7218306,10.8303538 C29.8651915,8.84110514 30.9338699,9.51268909 31.0356488,8.8496062 C36.1585199,5.96774597 41.1032779,2.86485811 46.2176674,0 Z" id="fff"></path>
                </g>
                <g id="ccc-(3)">
                    <path d="M59.65337,125.442219 C57.392022,128.401162 53.8596974,130.346085 49.8651994,130.346085 C43.0811554,130.346085 37.568088,124.793911 37.568088,117.961746 C37.568088,111.129581 43.0811554,105.577408 49.8651994,105.577408 C53.8927098,105.577408 57.4580468,107.538955 59.7193948,110.56439 C59.8184319,110.680753 60,110.863609 60,110.281795 L60,88.1894653 C60,87.8569998 59.7854195,87.5910274 59.4057772,87.5910274 L37.4690509,87.5910274 C36.9078404,87.5910274 37.0729023,87.4081714 37.1884457,87.3084318 C40.1925722,85.06429 42.1403026,81.4404166 42.1403026,77.3843381 C42.1403026,70.552173 36.6272352,65 29.8431912,65 C23.0591472,65 17.5460798,70.552173 17.5460798,77.3843381 C17.5460798,81.40717 19.4442916,84.9645504 22.4154058,87.2419387 C22.5804677,87.3583016 22.5144429,87.5744042 22.085282,87.5744042 L1.07290234,87.5744042 C0.429160935,87.5744042 0,87.9733627 0,88.6549169 L0,133.620869 C0,141.516924 6.43741403,148 14.2778542,148 L58.9270977,148 C59.7524072,148 60,147.401562 60,146.919487 L60,125.774685 C60,125.325856 59.7854195,125.29261 59.65337,125.442219 Z" id="fff"></path>
                    <path d="M119.82962,87.7240739 C120.311865,87.7240739 120.910514,87.9562233 120.910514,88.8019103 L120.910514,133.656485 C120.910514,141.532982 114.425147,148 106.526303,148 L61.544466,148 C60.8793002,148 60.4635716,147.585448 60.4635716,146.922164 L60.4635716,125.846317 C60.4635716,125.547839 60.3637967,125.431765 60.2640218,125.431765 C60.2307635,125.431765 60.164247,125.464929 60.1309887,125.514675 C57.8527958,128.466289 54.2941587,130.406394 50.2699056,130.406394 C43.435327,130.406394 37.8811925,124.867973 37.8811925,118.052731 C37.8811925,111.237489 43.435327,105.699068 50.2699056,105.699068 C54.327417,105.699068 57.9193124,107.655756 60.1975053,110.673698 C60.2307635,110.740026 60.2972801,110.789772 60.3637967,110.789772 C60.4303133,110.789772 60.4802007,110.69028 60.4802007,110.391802 L60.4802007,88.3376116 C60.4802007,87.9396412 60.7296379,87.740656 61.0788499,87.740656 L83.1789838,87.740656 C83.7443747,87.740656 83.5780833,87.9230591 83.4616792,88.0225517 C80.4351748,90.2611349 78.4729357,93.8594502 78.4729357,97.9220642 C78.4729357,104.737306 84.0270702,110.275727 90.8616488,110.275727 C97.6962275,110.275727 103.250362,104.737306 103.250362,97.9220642 C103.250362,93.9091965 101.33801,90.3606275 98.3613933,88.0888801 C98.1951018,87.9728054 98.2616184,87.7572381 98.6939762,87.7572381 C98.677347,87.7240739 119.330745,87.7240739 119.82962,87.7240739 L119.82962,87.7240739 Z M118.981533,89.6310152 L102.51868,89.6310152 C104.214852,92.0188373 105.146084,94.8709582 105.146084,97.8889 C105.146084,105.748814 98.7272344,112.166086 90.8283905,112.166086 C82.9461757,112.166086 76.5106966,105.765397 76.5106966,97.8889 C76.5106966,94.8709582 77.4419287,92.0188373 79.1381015,89.6310152 L62.3759233,89.6310152 L62.3759233,110.342056 C62.3759233,112.182668 61.0455917,112.646967 60.3471676,112.646967 C59.9646972,112.646967 59.2330148,112.530892 58.6509948,111.768116 C56.6554973,109.11498 53.5957347,107.572845 50.2699056,107.572845 C44.4995923,107.572845 39.7935442,112.265579 39.7935442,118.019567 C39.7935442,123.773555 44.4995923,128.466289 50.2699056,128.466289 C53.5624764,128.466289 56.5889808,126.9739 58.6177365,124.353928 C59.016836,123.823301 59.6321143,123.524823 60.280651,123.524823 C61.311658,123.524823 62.3925524,124.337346 62.3925524,125.846317 L62.3925524,146.093059 L106.526303,146.093059 C113.41077,146.093059 118.998162,140.521474 118.998162,133.656485 L118.998162,89.6310152 L118.981533,89.6310152 Z M79.7367507,37.9777801 C80.801016,34.412629 83.4783084,31.3781051 87.2531243,29.9520447 C93.6553452,27.5476405 100.805878,30.7977317 103.200474,37.1818394 C105.611701,43.5659471 102.352388,50.6962492 95.9501672,53.0840713 C92.1587221,54.5101317 88.1012107,53.9463404 84.925044,51.9233245 C84.7920109,51.840414 84.5425737,51.7243393 84.7587526,52.2715485 C84.7587526,52.2715485 92.3915302,72.5680364 92.5079342,72.8996784 C92.6243382,73.2147382 92.9236628,73.3971413 93.2728749,73.2479024 L113.942902,65.553809 C114.491664,65.3548238 114.37526,65.5869732 114.292114,65.71963 C112.263359,68.8868107 111.697968,72.9328426 113.128074,76.7135609 C115.5393,83.0976686 122.673203,86.3477598 129.075424,83.9433556 C135.477645,81.5389514 138.736958,74.4252314 136.325732,68.0411237 C134.928883,64.2769874 131.852491,61.6238518 128.277225,60.5460154 C128.094305,60.479687 128.061046,60.2641197 128.476775,60.1148809 L148.282087,52.7026831 C148.897365,52.4705337 149.146802,51.9564887 148.913994,51.3263689 C148.697815,50.6796671 133.149565,9.30733273 133.149565,9.30733273 C130.355868,1.91171704 122.024667,-1.86900129 114.608068,0.916791163 L72.4864435,16.6697842 C71.6882445,16.968262 71.6882445,17.6149638 71.854536,18.0460983 C72.0374566,18.493815 79.2877638,37.795377 79.2877638,37.795377 C79.4540553,38.1933474 79.6868633,38.1601832 79.7367507,37.9777801 L79.7367507,37.9777801 Z M59.366048,27.4315658 C60.0312138,27.4315658 60.4469424,27.8461182 60.4469424,28.5094022 L60.4469424,49.6018308 C60.4469424,49.9003085 60.5467173,50.0163832 60.6464922,50.0163832 C60.7130088,50.0163832 60.746267,49.9998011 60.7795253,49.9334727 C63.0577182,46.9818593 66.6163553,45.0583359 70.6406084,45.0583359 C77.475187,45.0583359 83.0293215,50.5967566 83.0293215,57.4119989 C83.0293215,64.2272411 77.475187,69.7656619 70.6406084,69.7656619 C66.583097,69.7656619 62.9912016,67.8089743 60.7130088,64.8241967 C60.6797505,64.7578683 60.6132339,64.6915399 60.5467173,64.6915399 C60.4802007,64.6915399 60.4303133,64.7910325 60.4303133,65.0895102 L60.4303133,87.1271184 C60.4303133,87.5250888 60.1808761,87.7240739 59.8316641,87.7240739 L37.7315302,87.7240739 C37.1661393,87.7240739 37.3324307,87.5416709 37.4488348,87.4421783 C40.4753392,85.2035951 42.4375783,81.5886977 42.4375783,77.5426658 C42.4375783,70.7274235 36.8834438,65.1890028 30.0488652,65.1890028 C23.2142866,65.1890028 17.6601521,70.7274235 17.6601521,77.5426658 C17.6601521,81.5555335 19.5725038,85.1041025 22.5657499,87.3758499 C22.7320413,87.4919246 22.6655248,87.7074918 22.233167,87.7074918 L1.08089443,87.7074918 C0.598649224,87.7074918 0,87.4753425 0,86.6296555 L0,41.7750805 C0,33.8654198 6.48536659,27.4315658 14.3842105,27.4315658 L59.366048,27.4315658 Z M58.5345907,29.3385071 L14.4008397,29.3385071 C7.51637358,29.3385071 1.92898083,34.910092 1.92898083,41.7750805 L1.92898083,85.7839685 L18.3918345,85.7839685 C16.6956617,83.3961464 15.7644296,80.5440255 15.7644296,77.5260837 C15.7644296,69.6661693 22.1832796,63.2488974 30.0821235,63.2488974 C37.9809674,63.2488974 44.3998174,69.6495872 44.3998174,77.5260837 C44.3998174,80.5440255 43.4685853,83.3961464 41.7724125,85.7839685 L58.5512199,85.7839685 L58.5512199,65.0895102 C58.5512199,63.2488974 59.8815515,62.7845986 60.5799756,62.7845986 C60.9624459,62.7845986 61.6941283,62.9006733 62.2761484,63.6634498 C64.2716458,66.3165855 67.3314085,67.8587206 70.6572375,67.8587206 C76.4275509,67.8587206 81.1335989,63.1659869 81.1335989,57.4119989 C81.1335989,51.6580109 76.4275509,46.9652772 70.6572375,46.9652772 C67.3812959,46.9652772 64.3381624,48.457666 62.3094067,51.0776375 C61.9103072,51.6082646 61.2950288,51.9067424 60.6464922,51.9067424 C59.6154852,51.9067424 58.5345907,51.0942196 58.5345907,49.5852487 L58.5345907,29.3385071 Z" id="ggg"></path>
                </g>
            </g>
        </g>
    </g>
</svg>