<?xml version="1.0" encoding="UTF-8"?>
<svg width="30px" height="30px" viewBox="0 0 30 30" version="1.1" xmlns="http://www.w3.org/2000/svg" xmlns:xlink="http://www.w3.org/1999/xlink">
    <title>icon_github</title>
    <g id="page-1" stroke="none" stroke-width="1" fill="none" fill-rule="evenodd">
        <g id="icon_github" fill="#FFFFFF" fill-rule="nonzero">
            <path d="M23.75,0 C27.2025,0 30,2.79875 30,6.25 L30,6.25 L30,23.75 C30,27.20125 27.2025,30 23.75,30 L23.75,30 L6.25,30 C2.79875,30 0,27.20125 0,23.75 L0,23.75 L0,6.25 C0,2.79875 2.79875,0 6.25,0 L6.25,0 Z M15,6.5002102 C13.4974663,6.48958173 12.0211716,6.89402121 10.73385,7.6689467 C9.44248724,8.43636178 8.3755104,9.5297073 7.63985,10.8394101 C6.87995,12.1747447 6.5,13.6316279 6.5,15.2126096 C6.5,17.1114877 7.04059999,18.819118 8.1218,20.3355005 C9.20215,21.851033 10.5987,22.9007709 12.3106,23.4830142 C12.5095,23.5212637 12.6574,23.494914 12.7526,23.4031151 C12.8495,23.3130161 12.8971,23.1991175 12.8971,23.063119 L12.8971,23.063119 L12.892,22.4511261 C12.88775,22.0652305 12.88605,21.7286344 12.88605,21.4413377 L12.88605,21.4413377 L12.6319,21.4863872 C12.46955,21.5169869 12.26385,21.5297367 12.01735,21.5263368 C11.77,21.5229368 11.5133,21.4957371 11.2481,21.4464377 C10.9829,21.3979882 10.73555,21.2849395 10.5069,21.1064416 C10.2774,20.9287937 10.11505,20.6958963 10.019,20.4085997 L10.019,20.4085997 L9.9085,20.1476527 C9.8354,19.9742547 9.71895,19.7813069 9.56000001,19.5696594 C9.40105,19.3580118 9.24125,19.2143634 9.07805,19.1378643 L9.07805,19.1378643 L9.00155,19.081765 C8.94803552,19.0424728 8.8995109,18.9968031 8.85705001,18.9457665 C8.81612422,18.8980651 8.78259983,18.844484 8.75760001,18.7868184 C8.73634999,18.733269 8.75335,18.6907695 8.81284999,18.6567699 C8.87234999,18.6227703 8.97945,18.6057705 9.13415,18.6057705 L9.13415,18.6057705 L9.35515,18.6397701 C9.50305001,18.6695197 9.68580001,18.7604687 9.90340001,18.9117669 C10.1237385,19.0661663 10.3069511,19.2676688 10.43975,19.5016601 C10.60975,19.8110566 10.8146,20.0473538 11.0543,20.2105519 C11.29485,20.3729001 11.5354,20.4544991 11.77935,20.4544991 C11.9909878,20.4573976 12.2023546,20.4383122 12.41005,20.3975498 C12.5823971,20.361417 12.749674,20.3043265 12.90815,20.2275517 C12.97445,19.7209576 13.1555,19.3308121 13.45045,19.0588152 C13.0297,19.0137658 12.65145,18.9457665 12.3157,18.8539676 C11.9808,18.7638686 11.63315,18.6159704 11.2753,18.4119727 C10.9313456,18.219631 10.62865,17.9614184 10.3845,17.6520815 C10.14905,17.349485 9.95525,16.9525395 9.80394999,16.4612452 C9.65264999,15.9691009 9.57614999,15.4021574 9.57614999,14.7595649 C9.57614999,13.8441254 9.86854999,13.0646844 10.45165,12.4220918 C10.17795,11.7335998 10.2043,10.9626587 10.52815,10.1084185 C10.74235,10.0404193 11.06025,10.0914187 11.48015,10.2614168 C11.9009,10.4314148 12.20945,10.5767631 12.40495,10.6983117 C12.564523,10.7958014 12.7212706,10.8978421 12.875,11.0043082 C13.5660325,10.8069977 14.2813516,10.7077125 15,10.7093616 C15.7186083,10.7074361 16.4339266,10.806435 17.125,11.0034582 L17.125,11.0034582 L17.54575,10.7314614 C17.8683731,10.5328324 18.2093816,10.3657459 18.56405,10.2325171 C18.95505,10.0820689 19.2534,10.0395693 19.45995,10.1075686 C19.7923,10.9626587 19.8212,11.7335998 19.5492,12.4220918 C20.13145,13.0646844 20.423,13.8441254 20.423,14.7595649 C20.423,15.4021574 20.34735,15.9708009 20.19605,16.4663452 C20.04475,16.9618894 19.84925,17.3588349 19.60955,17.6580314 C19.3611592,17.964175 19.0568422,18.2203176 18.7128,18.4128227 C18.35495,18.6168203 18.00815,18.7638686 17.67325,18.8548176 C17.3008705,18.9521765 16.921473,19.020382 16.5385,19.0588152 C16.92185,19.3988113 17.11395,19.9360051 17.11395,20.6695466 L17.11395,20.6695466 L17.11395,23.063969 C17.1107178,23.1916595 17.1609397,23.3149021 17.2525,23.4039651 C17.3443,23.494914 17.4905,23.5212637 17.6894,23.4830142 C19.4013,22.9007709 20.79785,21.851883 21.8782,20.3355005 C22.9594,18.819118 23.5,17.1114877 23.5,15.2126096 C23.5,13.6324779 23.12005,12.1738947 22.36015,10.8394101 C21.6247246,9.52981432 20.5580507,8.43647893 19.267,7.6689467 C17.9794316,6.89387017 16.5028219,6.48942496 15,6.5002102 Z" id="xxxx"></path>
        </g>
    </g>
</svg>