<?xml version="1.0" encoding="UTF-8"?>
<svg width="30px" height="30px" viewBox="0 0 30 30" version="1.1" xmlns="http://www.w3.org/2000/svg" xmlns:xlink="http://www.w3.org/1999/xlink">
    <title>icon_discord</title>
    <g id="page-1" stroke="none" stroke-width="1" fill="none" fill-rule="evenodd">
        <g id="icon_discord">
            <path d="M23.75,0 C27.2025,0 30,2.79875 30,6.25 L30,6.25 L30,23.75 C30,27.20125 27.2025,30 23.75,30 L23.75,30 L6.25,30 C2.79875,30 0,27.20125 0,23.75 L0,23.75 L0,6.25 C0,2.79875 2.79875,0 6.25,0 L6.25,0 Z M7.93705233,10.2871658 C7.93705233,10.2871658 5.6,14.2101604 5.6,19.0465241 C5.6,19.0465241 6.89476585,21.2176471 10.4463085,21.3 C10.4463085,21.3 10.9642149,20.6349376 11.488595,20.0497326 C9.49465564,19.4657754 8.71779613,18.297861 8.71779613,18.297861 C8.71779613,18.297861 8.89129475,18.3802139 9.15154268,18.5474153 L9.22922863,18.5474153 C9.26807161,18.5474153 9.28619832,18.5661319 9.30691458,18.5848485 L9.30691458,18.5923351 C9.32763084,18.6122995 9.34575756,18.6297683 9.38460053,18.6297683 C9.81187326,18.7994652 10.239146,18.9666667 10.5887328,19.128877 C11.3363711,19.4373036 12.1183836,19.6617176 12.9193113,19.7976827 C14.1234435,19.9661319 15.5036639,20.0472371 17.0755096,19.7976827 C17.8523691,19.6292335 18.6292286,19.4645276 19.4060881,19.1301248 C19.9110468,18.8805704 20.5325344,18.631016 21.214876,18.2105169 C21.214876,18.2105169 20.4380165,19.3784314 18.3599174,19.9623886 C18.7871901,20.5438503 19.3892562,21.2101604 19.3892562,21.2101604 C22.1061319,21.1529097 23.5525153,19.8698203 24.1174907,19.3104736 L24.2324004,19.1951285 C24.3320181,19.0944057 24.3862907,19.0402118 24.4,19.0565062 C24.4,14.2276292 22.05,10.2971479 22.05,10.2971479 C20.0060559,8.83458725 18.0888479,8.73064681 17.6444017,8.72521758 L17.615,8.724 L17.3758953,8.95329767 C20.0599449,9.70196077 21.358595,10.871123 21.358595,10.871123 C19.6287879,10.0376114 18.0698898,9.62085561 16.5109917,9.45240642 C15.3845455,9.28395722 14.2580992,9.37254901 13.3064463,9.45240642 L13.0474931,9.45240642 C12.4389532,9.45240642 11.1441873,9.70196077 9.40920109,10.3695187 C8.80454545,10.6228164 8.4575482,10.7887701 8.4575482,10.7887701 C8.4575482,10.7887701 9.75490357,9.53850267 12.6137465,8.87094473 L12.4389532,8.70249553 L12.4155417,8.70202166 C12.1759148,8.69922314 10.1324651,8.72351859 7.93705233,10.2871658 Z M17.8938017,14.2101604 C18.804022,14.2101604 19.5381542,14.9588235 19.5381542,15.8759358 C19.5381542,16.799287 18.8001377,17.5479501 17.8938017,17.5479501 C16.9874656,17.5479501 16.249449,16.799287 16.249449,15.8834225 C16.2520385,14.9600713 16.9913499,14.2139037 17.8938017,14.2139037 L17.8938017,14.2101604 Z M12.0116804,14.2101604 C12.9180165,14.2101604 13.650854,14.9588235 13.650854,15.8759358 C13.650854,16.799287 12.9128375,17.5479501 12.0065014,17.5479501 C11.1001653,17.5479501 10.3621488,16.799287 10.3621488,15.8834225 C10.3621488,14.9600713 11.1001653,14.2139037 12.0065014,14.2139037 L12.0116804,14.2101604 Z" id="discord-2" fill="#FFFFFF" fill-rule="nonzero"></path>
            <g id="discord-(1)" transform="translate(5.600000, 8.700000)"></g>
        </g>
    </g>
</svg>