<?xml version="1.0" encoding="UTF-8"?>
<svg width="30px" height="30px" viewBox="0 0 30 30" version="1.1" xmlns="http://www.w3.org/2000/svg" xmlns:xlink="http://www.w3.org/1999/xlink">
    <title>icon_gitcoin</title>
    <g id="page-1" stroke="none" stroke-width="1" fill="none" fill-rule="evenodd">
        <g id="icon_gitcoin" fill="#FFFFFF" fill-rule="nonzero">
            <path d="M23.75,0 C27.2025,0 30,2.79875 30,6.25 L30,6.25 L30,23.75 C30,27.20125 27.2025,30 23.75,30 L23.75,30 L6.25,30 C2.79875,30 0,27.20125 0,23.75 L0,23.75 L0,6.25 C0,2.79875 2.79875,0 6.25,0 L6.25,0 Z M13.07813,5.25000368 C12.9967587,5.25000368 12.9151189,5.26817284 12.8426098,5.30423644 C12.7701007,5.34030005 12.6975917,5.38544633 12.6433441,5.44849087 C12.5890966,5.51180253 12.5437113,5.58392974 12.5257183,5.65605696 C12.497169,5.73403934 12.490849,5.81835501 12.5074568,5.89968665 L12.5074568,5.89968665 L12.480333,7.89387049 L12.1778203,8.035199 C10.4816286,8.86701134 9.09634226,10.2211222 8.2310336,11.9004036 C7.31607668,13.6779386 7.02604045,15.7172688 7.42457173,17.675389 C7.82434741,19.6346645 8.88172859,21.400591 10.4232242,22.6834218 C11.963231,23.964895 13.8972183,24.6844242 15.9046405,24.7227519 L15.9046405,24.7227519 L22.3826536,24.7500037 L22.4555198,24.7426254 C22.6203935,24.7087718 22.7451989,24.5625026 22.7451989,24.3888297 L22.7451989,24.3888297 L22.7451989,21.1313511 L22.738831,21.0622927 C22.7220389,20.9722438 22.6727972,20.8914613 22.6001807,20.8337595 L22.6001807,20.8337595 L21.424,19.943 L21.5974273,19.6944492 C22.3302823,18.5868438 22.7240594,17.2886288 22.7269373,15.9582271 L22.7269373,15.9582271 L22.7218918,15.6570946 C22.6673331,14.2549121 22.180084,12.9005926 21.3226785,11.7801915 L21.3226785,11.7801915 L21.287,11.811 L22.6367038,10.5556318 L22.6846687,10.5006541 C22.7815331,10.3632299 22.7724569,10.1678478 22.645566,10.0413915 L22.645566,10.0413915 L22.3375368,9.73471723 L22.1078001,9.51140697 C20.5516858,8.05309693 18.5111915,7.20604969 16.3670872,7.13600048 L16.3670872,7.13600048 L16.3762179,5.917852 L16.3795997,5.83664211 C16.378247,5.78250217 16.3701307,5.72836223 16.3579564,5.67422231 C16.3334372,5.59502035 16.293467,5.52140146 16.2403306,5.45757354 C16.1859536,5.39487573 16.1177616,5.3455095 16.0410649,5.31331912 C15.9677465,5.2773358 15.8870322,5.25877235 15.8052762,5.25909013 C15.723905,5.25909013 15.6422651,5.27698835 15.5697561,5.31305199 C15.497247,5.34938272 15.4247379,5.39452904 15.3704904,5.45730641 C15.3159743,5.52061808 15.2708576,5.59301242 15.2528646,5.66513963 C15.2243565,5.74313084 15.2180374,5.82743505 15.2346031,5.90876933 L15.2346031,5.90876933 L15.2254723,7.16298141 L14.8239746,7.21173332 C14.4238522,7.26985455 14.0281853,7.35601994 13.6399409,7.46965564 L13.6399409,7.46965564 L13.6490716,5.90876933 L13.6520074,5.82701464 C13.6509446,5.77252812 13.6438541,5.7182398 13.6308101,5.66513963 C13.6062651,5.58602926 13.5662958,5.51250266 13.5131843,5.44875799 C13.4588431,5.38595599 13.390647,5.33649534 13.3139187,5.30423644 C13.2405969,5.26826235 13.1598848,5.2496994 13.07813,5.25000368 Z M16.0859131,8.70596946 C17.650339,8.70678964 19.1714709,9.21710569 20.4168524,10.1589321 C20.5073544,10.2310593 20.5162167,10.3574155 20.4348454,10.4386254 L20.4348454,10.4386254 L17.0465239,13.5336842 L16.857976,13.4638023 C16.6034119,13.3805272 16.3369743,13.3370159 16.0681887,13.3352008 C15.6967812,13.3352008 15.3251051,13.407328 14.9808214,13.5606651 C14.6401901,13.7133331 14.3371863,13.9381584 14.0929882,14.219427 C13.8493239,14.5007897 13.6673113,14.8295984 13.5585696,15.1848631 C13.4502226,15.5413696 13.4223458,15.9172757 13.4769298,16.2857381 C13.5296578,16.6542869 13.6592778,17.0077956 13.8574681,17.3235685 C14.0567337,17.6393254 14.3285084,17.9008533 14.6365376,18.1086866 C14.9536976,18.3069028 15.3071121,18.4426089 15.6785196,18.4965707 C16.0484714,18.5512901 16.4260242,18.5235516 16.78388,18.4153608 L16.78388,18.4153608 L21.1145507,21.6910048 L21.1536399,21.7323815 C21.1751241,21.7630726 21.1870597,21.7991066 21.1870597,21.8352592 L21.1870597,21.8352592 L21.177929,22.9903631 L21.1685807,23.0472287 C21.144543,23.1187281 21.0768343,23.1703293 20.9969249,23.1706812 L20.9969249,23.1706812 L16.0313971,23.152783 L15.7135739,23.1436705 C14.2327347,23.07029 12.8067311,22.5490468 11.6282173,21.6458585 C10.36803,20.67007 9.46428239,19.3101391 9.05548848,17.7744972 C8.64755789,16.2405918 8.76545224,14.6073111 9.37237991,13.145533 C9.98795525,11.6803029 11.0701416,10.456655 12.4526722,9.66259002 L12.4526722,9.66259002 L12.4438099,12.0355753 L12.4404182,12.1169039 C12.4417511,12.1710439 12.4498076,12.2250651 12.461803,12.279205 C12.4891953,12.3604149 12.5254498,12.4328093 12.5796973,12.4958538 C12.6339448,12.5591654 12.6975917,12.6040446 12.7789629,12.6401082 C12.851472,12.6764389 12.9331118,12.6943372 13.0144831,12.6943372 C13.0961229,12.6943372 13.1777628,12.676439 13.2500033,12.6403753 C13.3225123,12.6040446 13.3950214,12.5591655 13.4495375,12.4961209 C13.503785,12.4328093 13.5489017,12.3604149 13.5671633,12.2882877 C13.594287,12.2070778 13.6034178,12.1258679 13.5854248,12.044658 L13.5854248,12.044658 L13.594287,9.13018435 L13.8954194,9.02904607 C14.6026413,8.80966488 15.3407819,8.70596946 16.0859131,8.70596946 Z M20.0994239,12.9080474 L20.2521318,13.1329509 C20.7886721,13.971319 21.0772891,14.9564157 21.0691654,15.9491444 C21.0661639,17.0227489 20.7278708,18.0688779 20.1011056,18.9428583 L20.1011056,18.9428583 L18.1516157,17.4678229 L18.2640995,17.3072587 C18.5117243,16.9238947 18.6547288,16.4816162 18.6771721,16.0242101 C18.6970777,15.5022417 18.5581799,14.9864452 18.2786408,14.5442666 L18.2786408,14.5442666 L20.0994239,12.9080474 Z M16.0767824,14.9142525 C16.3488256,14.9142525 16.611201,15.0224433 16.801873,15.2209267 C16.9899998,15.4107818 17.0943682,15.6673489 17.0916406,15.9339175 C17.0916406,16.132401 17.0282623,16.3308843 16.9197673,16.5023869 C16.8059189,16.6706498 16.645341,16.8023523 16.4575892,16.8814554 C16.2721188,16.9615844 16.065719,16.980496 15.8686545,16.9354173 C15.6782511,16.890271 15.4878477,16.7999784 15.3430981,16.655724 C15.1980059,16.5137512 15.0999941,16.3310633 15.0621926,16.1321338 C15.0259381,15.9339176 15.0439311,15.7260843 15.1255709,15.5457663 C15.2049434,15.3589991 15.3371454,15.1991874 15.5061092,15.085755 C15.6782511,14.977297 15.8775167,14.9142525 16.0767824,14.9142525 Z" id="dddd"></path>
        </g>
    </g>
</svg>